<svg id="Livello_1" data-name="Livello 1" xmlns="http://www.w3.org/2000/svg" viewBox="0 0 149.01 150"><defs><style>.cls-1{fill:#fff;}</style></defs><title>logo</title><path class="cls-1" d="M149,75h0a105.28,105.28,0,0,0-27.12-19.76A106.59,106.59,0,0,0,127.19,22h0A104.62,104.62,0,0,0,94.14,27.3,105.93,105.93,0,0,0,74.51,0h0A105.93,105.93,0,0,0,54.88,27.3,104.62,104.62,0,0,0,21.82,22h0a106.59,106.59,0,0,0,5.3,33.27A105.28,105.28,0,0,0,0,75H0A105.28,105.28,0,0,0,27.12,94.76,106.59,106.59,0,0,0,21.82,128h0a104.62,104.62,0,0,0,33.06-5.33A105.93,105.93,0,0,0,74.51,150h0a105.93,105.93,0,0,0,19.63-27.3A104.62,104.62,0,0,0,127.19,128h0a106.59,106.59,0,0,0-5.3-33.27A105.28,105.28,0,0,0,149,75ZM124.94,24.23a104.52,104.52,0,0,1-5,30,104.41,104.41,0,0,0-18.11-6.72,106,106,0,0,0-6.68-18.23A102.6,102.6,0,0,1,124.94,24.23ZM103.14,75a106.31,106.31,0,0,1-.65,11.67,105.39,105.39,0,0,1-7.74,8.71,105.16,105.16,0,0,1-8.66,7.79,104.24,104.24,0,0,1-11.59.65,104.24,104.24,0,0,1-11.59-.65,104.6,104.6,0,0,1-16.4-16.5,105.64,105.64,0,0,1,0-23.34,104.6,104.6,0,0,1,16.4-16.5,103.57,103.57,0,0,1,23.19,0,105.16,105.16,0,0,1,8.66,7.79,105.39,105.39,0,0,1,7.74,8.71A106.31,106.31,0,0,1,103.14,75ZM90.24,47.37q4.94.76,9.75,2,1.22,4.84,2,9.81A106.36,106.36,0,0,0,90.24,47.37ZM87,44.68a105.61,105.61,0,0,0-10.3-7.22A101.49,101.49,0,0,1,93,30a102.91,102.91,0,0,1,6.32,16.89A105,105,0,0,0,87,44.68Zm-4.19-.41q-4.13-.33-8.28-.33t-8.28.33q4-3,8.28-5.54Q78.76,41.29,82.79,44.27ZM62,44.68a105,105,0,0,0-12.35,2.23A102.91,102.91,0,0,1,56,30a101.48,101.48,0,0,1,16.33,7.44A105.62,105.62,0,0,0,62,44.68Zm-3.25,2.7A106.36,106.36,0,0,0,47.06,59.16q.75-5,2-9.81Q53.83,48.13,58.77,47.37ZM44.38,62.44a106.34,106.34,0,0,0-7.17,10.37,102.82,102.82,0,0,1-7.39-16.44A101.39,101.39,0,0,1,46.6,50,107,107,0,0,0,44.38,62.44ZM44,66.66a107.41,107.41,0,0,0,0,16.67q-3-4-5.5-8.34Q41,70.71,44,66.66Zm.41,20.9A107,107,0,0,0,46.6,100a101.39,101.39,0,0,1-16.78-6.36,102.81,102.81,0,0,1,7.39-16.44A106.34,106.34,0,0,0,44.38,87.56Zm2.68,3.28a106.36,106.36,0,0,0,11.71,11.79q-4.94-.76-9.75-2Q47.81,95.81,47.06,90.84Zm15,14.49a105.62,105.62,0,0,0,10.3,7.22A101.49,101.49,0,0,1,56,120a102.91,102.91,0,0,1-6.32-16.89A105,105,0,0,0,62,105.32Zm4.19.41q4.13.33,8.28.33t8.28-.33q-4,3-8.28,5.54Q70.25,108.71,66.22,105.73ZM87,105.32a105,105,0,0,0,12.35-2.23A102.91,102.91,0,0,1,93,120a101.49,101.49,0,0,1-16.33-7.44A105.61,105.61,0,0,0,87,105.32Zm3.25-2.7A106.36,106.36,0,0,0,102,90.84q-.75,5-2,9.81Q95.18,101.87,90.24,102.63Zm14.39-15.07a106.34,106.34,0,0,0,7.17-10.37,102.82,102.82,0,0,1,7.39,16.44A101.39,101.39,0,0,1,102.41,100,107,107,0,0,0,104.63,87.56Zm.41-4.22a107.41,107.41,0,0,0,0-16.67q3,4,5.5,8.34Q108,79.29,105,83.34Zm-.41-20.9A107,107,0,0,0,102.41,50a101.39,101.39,0,0,1,16.78,6.36,102.82,102.82,0,0,1-7.39,16.44A106.35,106.35,0,0,0,104.63,62.44ZM74.51,3.2A103.89,103.89,0,0,1,92,28a104.53,104.53,0,0,0-17.53,8.14A104.53,104.53,0,0,0,57,28,103.9,103.9,0,0,1,74.51,3.2Zm-50.44,21A102.6,102.6,0,0,1,53.9,29.31a106,106,0,0,0-6.68,18.23,104.41,104.41,0,0,0-18.11,6.72A104.52,104.52,0,0,1,24.07,24.23ZM3.18,75A103.22,103.22,0,0,1,27.84,57.36,105.87,105.87,0,0,0,35.92,75a105.88,105.88,0,0,0-8.08,17.64A103.22,103.22,0,0,1,3.18,75Zm20.89,50.77a104.52,104.52,0,0,1,5-30,104.41,104.41,0,0,0,18.11,6.72,106,106,0,0,0,6.68,18.23A102.6,102.6,0,0,1,24.07,125.77Zm50.44,21A103.89,103.89,0,0,1,57,122a104.53,104.53,0,0,0,17.53-8.14A104.53,104.53,0,0,0,92,122,103.9,103.9,0,0,1,74.51,146.8Zm50.44-21a102.6,102.6,0,0,1-29.83-5.08,106,106,0,0,0,6.68-18.23,104.41,104.41,0,0,0,18.11-6.72A104.52,104.52,0,0,1,124.94,125.77Zm-3.77-33.13A105.87,105.87,0,0,0,113.09,75a105.88,105.88,0,0,0,8.08-17.64A103.23,103.23,0,0,1,145.83,75,103.22,103.22,0,0,1,121.17,92.64Z"/><ellipse class="cls-1" cx="74.51" cy="75" rx="12.14" ry="12.22"/></svg>